<svg version="1.1" xmlns="http://www.w3.org/2000/svg" xmlns:xlink="http://www.w3.org/1999/xlink" width="111" height="124"  xml:space="preserve" id="canvas2">
    <!-- Generated by PaintCode - http://www.paintcodeapp.com -->
    <rect id="canvas2-rectangle" stroke="rgb(0, 0, 0)" stroke-width="0.2" stroke-miterlimit="10" fill="none" x="7" y="8" width="97" height="33" />
    <rect id="canvas2-rectangle4" stroke="rgb(0, 0, 0)" stroke-width="0.2" stroke-miterlimit="10" fill="rgb(255, 255, 255)" x="18" y="20" width="15" height="15" />
    
    <text  fill="rgb(0, 0, 0)" font-family="Times-Roman, Times, sans-serif" font-size="3" x="34.34" y="9" text-anchor="middle"><tspan x="54.5" y="12">Operator1: Object1 Classification</tspan></text>
    <rect id="canvas2-rectangle5" stroke="rgb(0, 0, 0)" stroke-width="0.2" stroke-miterlimit="10" fill="rgb(255, 255, 255)" x="46" y="20" width="15" height="15" />
    <rect id="canvas2-rectangle6" stroke="rgb(0, 0, 0)" stroke-width="0.2" stroke-miterlimit="10" fill="rgb(255, 255, 255)" x="48" y="22" width="15" height="15" />
    <rect id="canvas2-rectangle7" stroke="rgb(0, 0, 0)" stroke-width="0.2" stroke-miterlimit="10" fill="rgb(255, 255, 255)" x="74" y="20" width="15" height="15" />
    <rect id="canvas2-rectangle8" stroke="rgb(0, 0, 0)" stroke-width="0.2" stroke-miterlimit="10" fill="rgb(255, 255, 255)" x="76" y="22" width="15" height="15" />
    <rect id="canvas2-rectangle9" stroke="rgb(0, 0, 0)" stroke-width="0.2" stroke-miterlimit="10" fill="rgb(255, 255, 255)" x="78" y="24" width="15" height="15" />
    
    <text  fill="rgb(0, 0, 0)" font-family="Times-Roman, Times, sans-serif" font-size="3" x="21.5" y="15.5" text-anchor="middle"><tspan x="25.5" y="18.5">Filter1</tspan></text>
    
    <text  fill="rgb(0, 0, 0)" font-family="Times-Roman, Times, sans-serif" font-size="3" x="49.5" y="16" text-anchor="middle"><tspan x="53.5" y="19">Filter2</tspan></text>
    
    <text  fill="rgb(0, 0, 0)" font-family="Times-Roman, Times, sans-serif" font-size="3" x="77.5" y="16" text-anchor="middle"><tspan x="81.5" y="19">Filter3</tspan></text>
    <rect id="canvas2-rectangle2" stroke="rgb(0, 0, 0)" stroke-width="0.2" stroke-miterlimit="10" fill="none" x="7" y="48" width="97" height="33" />
    <rect id="canvas2-rectangle10" stroke="rgb(0, 0, 0)" stroke-width="0.2" stroke-miterlimit="10" fill="rgb(255, 255, 255)" x="18" y="59" width="15" height="15" />
    
    <text  fill="rgb(0, 0, 0)" font-family="Times-Roman, Times, sans-serif" font-size="3" x="34.34" y="48" text-anchor="middle"><tspan x="54.5" y="51">Operator2: Object2 Classification</tspan></text>
    <rect id="canvas2-rectangle11" stroke="rgb(0, 0, 0)" stroke-width="0.2" stroke-miterlimit="10" fill="rgb(255, 255, 255)" x="46" y="59" width="15" height="15" />
    <rect id="canvas2-rectangle12" stroke="rgb(0, 0, 0)" stroke-width="0.2" stroke-miterlimit="10" fill="rgb(255, 255, 255)" x="48" y="61" width="15" height="15" />
    <rect id="canvas2-rectangle13" stroke="rgb(0, 0, 0)" stroke-width="0.2" stroke-miterlimit="10" fill="rgb(255, 255, 255)" x="74" y="59" width="15" height="15" />
    <rect id="canvas2-rectangle14" stroke="rgb(0, 0, 0)" stroke-width="0.2" stroke-miterlimit="10" fill="rgb(255, 255, 255)" x="76" y="61" width="15" height="15" />
    <rect id="canvas2-rectangle15" stroke="rgb(0, 0, 0)" stroke-width="0.2" stroke-miterlimit="10" fill="rgb(255, 255, 255)" x="78" y="63" width="15" height="15" />
    
    <text  fill="rgb(0, 0, 0)" font-family="Times-Roman, Times, sans-serif" font-size="3" x="21.5" y="54.5" text-anchor="middle"><tspan x="25.5" y="57.5">Filter1</tspan></text>
    
    <text  fill="rgb(0, 0, 0)" font-family="Times-Roman, Times, sans-serif" font-size="3" x="49.5" y="55" text-anchor="middle"><tspan x="53.5" y="58">Filter2</tspan></text>
    
    <text  fill="rgb(0, 0, 0)" font-family="Times-Roman, Times, sans-serif" font-size="3" x="77.5" y="55" text-anchor="middle"><tspan x="81.5" y="58">Filter3</tspan></text>
    
    <text  fill="rgb(0, 0, 0)" font-family="Times-Roman, Times, sans-serif" font-size="3" x="43.3" y="88" text-anchor="middle"><tspan x="54.5" y="91">Interaction Sheave</tspan></text>
    <rect id="canvas2-rectangle3" stroke="rgb(0, 0, 0)" stroke-width="0.2" stroke-miterlimit="10" fill="none" x="36" y="86" width="37" height="35" />
    <rect id="canvas2-rectangle19" stroke="rgb(0, 0, 0)" stroke-width="0.2" stroke-miterlimit="10" fill="rgb(255, 255, 255)" x="46" y="99" width="15" height="15" />
    <rect id="canvas2-rectangle20" stroke="rgb(0, 0, 0)" stroke-width="0.2" stroke-miterlimit="10" fill="rgb(255, 255, 255)" x="48" y="101" width="15" height="15" />
    <rect id="canvas2-rectangle21" stroke="rgb(0, 0, 0)" stroke-width="0.2" stroke-miterlimit="10" fill="rgb(255, 255, 255)" x="50" y="103" width="15" height="15" />
    
    <text  fill="rgb(0, 0, 0)" font-family="Times-Roman, Times, sans-serif" font-size="3" x="49.5" y="95" text-anchor="middle"><tspan x="53.5" y="98">Filter1</tspan></text>
    
    <text  fill="rgb(0, 0, 0)" font-family="Times-Roman, Times, sans-serif" font-size="3" x="22.83" y="25" text-anchor="middle"><tspan x="26" y="28">CNN</tspan></text>
    
    <text  fill="rgb(0, 0, 0)" font-family="Times-Roman, Times, sans-serif" font-size="3" x="52.83" y="27" text-anchor="middle"><tspan x="56" y="30">CNN</tspan></text>
    
    <text  fill="rgb(0, 0, 0)" font-family="Times-Roman, Times, sans-serif" font-size="3" x="82.83" y="29" text-anchor="middle"><tspan x="86" y="32">CNN</tspan></text>
    
    <text  fill="rgb(0, 0, 0)" font-family="Times-Roman, Times, sans-serif" font-size="3" x="22.83" y="64" text-anchor="middle"><tspan x="26" y="67">CNN</tspan></text>
    
    <text  fill="rgb(0, 0, 0)" font-family="Times-Roman, Times, sans-serif" font-size="3" x="52.83" y="66" text-anchor="middle"><tspan x="56" y="69">CNN</tspan></text>
    
    <text  fill="rgb(0, 0, 0)" font-family="Times-Roman, Times, sans-serif" font-size="3" x="82.83" y="68" text-anchor="middle"><tspan x="86" y="71">CNN</tspan></text>
    
    <text  fill="rgb(0, 0, 0)" font-family="Times-Roman, Times, sans-serif" font-size="3" x="54.83" y="106" text-anchor="middle"><tspan x="58" y="109">CNN</tspan></text>
    <g id="canvas2-group">
        <path id="canvas2-bezier" stroke="rgb(0, 0, 0)" stroke-width="0.2" stroke-miterlimit="10" fill="none" d="M 6.9,27.07 L 17.9,27.07" />
        <path id="canvas2-bezier2" stroke="rgb(0, 0, 0)" stroke-width="0.2" stroke-miterlimit="10" fill="none" d="M 16.45,26.3 L 17.9,27.05 16.45,27.8" />
    </g>
    <g id="canvas2-group2">
        <path id="canvas2-bezier3" stroke="rgb(0, 0, 0)" stroke-width="0.2" stroke-miterlimit="10" fill="none" d="M 32.9,27.07 L 41.9,27.07" />
        <path id="canvas2-bezier4" stroke="rgb(0, 0, 0)" stroke-width="0.2" stroke-miterlimit="10" fill="none" d="M 40.72,26.3 L 41.9,27.05 40.72,27.8" />
    </g>
    <path id="canvas2-bezier5" stroke="rgb(0, 0, 0)" stroke-width="0.2" stroke-miterlimit="10" fill="none" d="M 42,27 C 53.35,-2.25 67.81,27 67.81,27 L 74,27" />
    <path id="canvas2-bezier6" stroke="rgb(0, 0, 0)" stroke-width="0.2" stroke-miterlimit="10" fill="none" d="M 72.72,26.3 L 73.9,27.05 72.72,27.8" />
    <g id="canvas2-group4">
        <path id="canvas2-bezier7" stroke="rgb(0, 0, 0)" stroke-width="0.2" stroke-miterlimit="10" fill="none" d="M 86.5,39 L 86.5,44 C 86.5,44 53.5,45 53.5,59" />
    </g>
    <path id="canvas2-bezier8" stroke="rgb(0, 0, 0)" stroke-width="0.2" stroke-miterlimit="10" fill="none" d="M -0.59,-0.75 L 0.59,-0 -0.59,0.75" transform="translate(53.5, 58.25) rotate(90)"  />
    <g id="canvas2-group3">
        <path id="canvas2-bezier9" stroke="rgb(0, 0, 0)" stroke-width="0.2" stroke-miterlimit="10" fill="none" d="M 62.9,67.07 L 73.9,67.07" />
        <path id="canvas2-bezier10" stroke="rgb(0, 0, 0)" stroke-width="0.2" stroke-miterlimit="10" fill="none" d="M 72.45,66.3 L 73.9,67.05 72.45,67.8" />
    </g>
    <g id="canvas2-group5">
        <path id="canvas2-bezier11" stroke="rgb(0, 0, 0)" stroke-width="0.2" stroke-miterlimit="10" fill="none" d="M 86.5,78 L 86.5,83.25 C 86.5,83.25 53.5,84.3 53.5,99" />
    </g>
    <path id="canvas2-bezier12" stroke="rgb(0, 0, 0)" stroke-width="0.2" stroke-miterlimit="10" fill="none" d="M -0.59,-0.75 L 0.59,-0 -0.59,0.75" transform="translate(53.5, 98.25) rotate(90)"  />
</svg>